<svg width="24" height="24" viewBox="0 0 24 24" fill="none" xmlns="http://www.w3.org/2000/svg">
<path fill-rule="evenodd" clip-rule="evenodd" d="M11.9938 1.25195C12.2793 1.25195 12.54 1.41403 12.6664 1.67003L15.5778 7.56929L22.0874 8.51271C22.3701 8.55368 22.6049 8.75165 22.6932 9.02331C22.7814 9.29497 22.7076 9.59315 22.503 9.79238L17.7858 14.3841L18.898 20.8681C18.9463 21.1497 18.8305 21.4341 18.5994 21.6019C18.3682 21.7697 18.0619 21.7916 17.8092 21.6585L12.0004 18.5975L6.17786 21.6588C5.92516 21.7916 5.61896 21.7695 5.38799 21.6017C5.15703 21.4339 5.04136 21.1495 5.08963 20.8681L6.20191 14.3841L1.4847 9.79238C1.28003 9.59315 1.20629 9.29497 1.2945 9.02331C1.38272 8.75165 1.61759 8.55368 1.90026 8.51271L8.40986 7.56929L11.3213 1.67003C11.4476 1.41403 11.7084 1.25195 11.9938 1.25195ZM11.9938 3.69663L9.58039 8.58687C9.4711 8.80832 9.2598 8.96178 9.01541 8.9972L3.62139 9.77894L7.53097 13.5845C7.70799 13.7568 7.7888 14.0053 7.74704 14.2488L6.82499 19.6239L11.6518 17.0861C11.8705 16.9711 12.1319 16.9712 12.3505 17.0864L17.1624 19.6221L16.2406 14.2488C16.1989 14.0053 16.2797 13.7568 16.4567 13.5845L20.3663 9.77894L14.9723 8.9972C14.7279 8.96178 14.5166 8.80832 14.4073 8.58687L11.9938 3.69663Z" fill="#FF4F00"/>
</svg>
