<svg width="24" height="24" viewBox="0 0 24 24" fill="none" xmlns="http://www.w3.org/2000/svg">
<path d="M17 10.75C16.3096 10.75 15.75 11.3096 15.75 12C15.75 12.6904 16.3096 13.25 17 13.25H17.1C17.7904 13.25 18.35 12.6904 18.35 12C18.35 11.3096 17.7904 10.75 17.1 10.75H17Z" fill="#FF4F00"/>
<path fill-rule="evenodd" clip-rule="evenodd" d="M22.75 19V5C22.75 3.48122 21.5188 2.25 20 2.25H4C2.48122 2.25 1.25 3.48122 1.25 5V19C1.25 20.5188 2.48122 21.75 4 21.75H20C21.5188 21.75 22.75 20.5188 22.75 19ZM4 3.75C3.30964 3.75 2.75 4.30964 2.75 5V19C2.75 19.6904 3.30964 20.25 4 20.25H20C20.6904 20.25 21.25 19.6904 21.25 19V16.75H17C15.7402 16.75 14.532 16.2496 13.6412 15.3588C12.7504 14.468 12.25 13.2598 12.25 12C12.25 10.7402 12.7504 9.53204 13.6412 8.64124C14.532 7.75044 15.7402 7.25 17 7.25H21.25V5C21.25 4.30964 20.6904 3.75 20 3.75H4ZM17 8.75H21.25V15.25H17C16.138 15.25 15.3114 14.9076 14.7019 14.2981C14.0924 13.6886 13.75 12.862 13.75 12C13.75 11.138 14.0924 10.3114 14.7019 9.7019C15.3114 9.09241 16.138 8.75 17 8.75Z" fill="#FF4F00"/>
</svg>
